<mxfile host="app.diagrams.net" modified="2024-02-14T15:37:25.082Z" agent="Mozilla/5.0 (Windows NT 10.0; Win64; x64) AppleWebKit/537.36 (KHTML, like Gecko) Chrome/121.0.0.0 Safari/537.36" etag="DGNbeZqU2SnwxpNrnbkz" version="23.1.4" type="device" pages="2">
  <diagram name="Page-1" id="-fLFf6VWCrrQARrfAeSI">
    <mxGraphModel dx="1050" dy="-600" grid="1" gridSize="10" guides="1" tooltips="1" connect="1" arrows="1" fold="1" page="1" pageScale="1" pageWidth="827" pageHeight="1169" math="0" shadow="0">
      <root>
        <mxCell id="0" />
        <mxCell id="1" parent="0" />
        <mxCell id="PJ2OHNvS5VbOxw7RyGj3-67" style="edgeStyle=orthogonalEdgeStyle;rounded=0;orthogonalLoop=1;jettySize=auto;html=1;exitX=0.5;exitY=0;exitDx=0;exitDy=0;entryX=1;entryY=0.5;entryDx=0;entryDy=0;" edge="1" parent="1" source="PJ2OHNvS5VbOxw7RyGj3-4" target="PJ2OHNvS5VbOxw7RyGj3-5">
          <mxGeometry relative="1" as="geometry" />
        </mxCell>
        <mxCell id="PJ2OHNvS5VbOxw7RyGj3-68" value="&lt;b style=&quot;border-color: var(--border-color);&quot;&gt;exob&lt;/b&gt;:isEngagedIn" style="edgeLabel;html=1;align=center;verticalAlign=middle;resizable=0;points=[];" vertex="1" connectable="0" parent="PJ2OHNvS5VbOxw7RyGj3-67">
          <mxGeometry x="-0.4817" relative="1" as="geometry">
            <mxPoint as="offset" />
          </mxGeometry>
        </mxCell>
        <mxCell id="PJ2OHNvS5VbOxw7RyGj3-4" value="foaf: Person&#xa;(Baseball Player)" style="graphMlID=n4;shape=rect;rounded=1;arcsize=30;fillColor=#ffff00;strokeColor=#000000;strokeWidth=1.0;fontStyle=1" vertex="1" parent="1">
          <mxGeometry x="660" y="2020" width="94.97" height="40" as="geometry" />
        </mxCell>
        <mxCell id="PJ2OHNvS5VbOxw7RyGj3-8" style="edgeStyle=orthogonalEdgeStyle;rounded=0;orthogonalLoop=1;jettySize=auto;html=1;entryX=1;entryY=0.5;entryDx=0;entryDy=0;" edge="1" parent="1" source="PJ2OHNvS5VbOxw7RyGj3-5" target="PJ2OHNvS5VbOxw7RyGj3-9">
          <mxGeometry relative="1" as="geometry">
            <mxPoint x="210" y="1680" as="targetPoint" />
          </mxGeometry>
        </mxCell>
        <mxCell id="PJ2OHNvS5VbOxw7RyGj3-10" value="&lt;b&gt;exob&lt;/b&gt;:inActivtity" style="edgeLabel;html=1;align=center;verticalAlign=middle;resizable=0;points=[];" vertex="1" connectable="0" parent="PJ2OHNvS5VbOxw7RyGj3-8">
          <mxGeometry x="0.0491" y="-1" relative="1" as="geometry">
            <mxPoint as="offset" />
          </mxGeometry>
        </mxCell>
        <mxCell id="PJ2OHNvS5VbOxw7RyGj3-5" value="fs:PerceptionExperience&#xa;(Perception)" style="graphMlID=n4;shape=rect;rounded=1;arcsize=30;fillColor=#ffff00;strokeColor=#000000;strokeWidth=1.0;fontStyle=1" vertex="1" parent="1">
          <mxGeometry x="310" y="1655" width="150.99" height="50" as="geometry" />
        </mxCell>
        <mxCell id="PJ2OHNvS5VbOxw7RyGj3-9" value="actspec:Activity&#xa;(baseball match)" style="graphMlID=n4;shape=rect;rounded=1;arcsize=30;fillColor=#ffff00;strokeColor=#000000;strokeWidth=1.0;fontStyle=1" vertex="1" parent="1">
          <mxGeometry x="70" y="1656" width="110" height="44" as="geometry" />
        </mxCell>
        <mxCell id="PJ2OHNvS5VbOxw7RyGj3-12" value="cnc:Variable(s)" style="graphMlID=n4;shape=rect;rounded=1;arcsize=30;fillColor=#ffff00;strokeColor=#000000;strokeWidth=1.0;fontStyle=1" vertex="1" parent="1">
          <mxGeometry x="395.99" y="2134" width="91.97" height="44" as="geometry" />
        </mxCell>
        <mxCell id="PJ2OHNvS5VbOxw7RyGj3-54" style="edgeStyle=orthogonalEdgeStyle;rounded=0;orthogonalLoop=1;jettySize=auto;html=1;exitX=0.25;exitY=1;exitDx=0;exitDy=0;entryX=0;entryY=0.75;entryDx=0;entryDy=0;" edge="1" parent="1" source="PJ2OHNvS5VbOxw7RyGj3-13" target="PJ2OHNvS5VbOxw7RyGj3-53">
          <mxGeometry relative="1" as="geometry" />
        </mxCell>
        <mxCell id="PJ2OHNvS5VbOxw7RyGj3-13" value="cnc:Var_type_1&#xa;(pair of socks)" style="graphMlID=n4;shape=rect;rounded=1;arcsize=30;fillColor=#ffff00;strokeColor=#000000;strokeWidth=1.0;fontStyle=1" vertex="1" parent="1">
          <mxGeometry x="320" y="2020" width="91.97" height="44" as="geometry" />
        </mxCell>
        <mxCell id="PJ2OHNvS5VbOxw7RyGj3-18" style="edgeStyle=orthogonalEdgeStyle;rounded=0;orthogonalLoop=1;jettySize=auto;html=1;entryX=0.687;entryY=1.1;entryDx=0;entryDy=0;entryPerimeter=0;" edge="1" parent="1" target="PJ2OHNvS5VbOxw7RyGj3-5">
          <mxGeometry relative="1" as="geometry">
            <mxPoint x="458" y="1840" as="sourcePoint" />
          </mxGeometry>
        </mxCell>
        <mxCell id="PJ2OHNvS5VbOxw7RyGj3-29" value="&lt;b&gt;exob&lt;/b&gt;:isReflectionOn" style="edgeLabel;html=1;align=center;verticalAlign=middle;resizable=0;points=[];" vertex="1" connectable="0" parent="PJ2OHNvS5VbOxw7RyGj3-18">
          <mxGeometry x="-0.5559" y="-2" relative="1" as="geometry">
            <mxPoint as="offset" />
          </mxGeometry>
        </mxCell>
        <mxCell id="PJ2OHNvS5VbOxw7RyGj3-22" value="" style="endArrow=classic;html=1;rounded=0;exitX=1;exitY=1;exitDx=0;exitDy=0;entryX=0;entryY=0;entryDx=0;entryDy=0;" edge="1" parent="1" source="PJ2OHNvS5VbOxw7RyGj3-9">
          <mxGeometry width="50" height="50" relative="1" as="geometry">
            <mxPoint x="390" y="1840" as="sourcePoint" />
            <mxPoint x="411.97" y="1840" as="targetPoint" />
          </mxGeometry>
        </mxCell>
        <mxCell id="PJ2OHNvS5VbOxw7RyGj3-24" value="&lt;b&gt;exob&lt;/b&gt;:includes" style="edgeLabel;html=1;align=center;verticalAlign=middle;resizable=0;points=[];" vertex="1" connectable="0" parent="PJ2OHNvS5VbOxw7RyGj3-22">
          <mxGeometry x="-0.2078" y="3" relative="1" as="geometry">
            <mxPoint as="offset" />
          </mxGeometry>
        </mxCell>
        <mxCell id="PJ2OHNvS5VbOxw7RyGj3-27" value="fs:CognitiveCorrelation&#xa;(Causual Relationship)" style="graphMlID=n4;shape=rect;rounded=1;arcsize=30;fillColor=#ffff00;strokeColor=#000000;strokeWidth=1.0;fontStyle=1" vertex="1" parent="1">
          <mxGeometry x="371" y="1840" width="140.99" height="50" as="geometry" />
        </mxCell>
        <mxCell id="PJ2OHNvS5VbOxw7RyGj3-65" style="edgeStyle=orthogonalEdgeStyle;rounded=0;orthogonalLoop=1;jettySize=auto;html=1;exitX=0.75;exitY=1;exitDx=0;exitDy=0;entryX=1;entryY=0.75;entryDx=0;entryDy=0;" edge="1" parent="1" source="PJ2OHNvS5VbOxw7RyGj3-28" target="PJ2OHNvS5VbOxw7RyGj3-53">
          <mxGeometry relative="1" as="geometry" />
        </mxCell>
        <mxCell id="PJ2OHNvS5VbOxw7RyGj3-66" value="&lt;b&gt;pof&lt;/b&gt;:isPartOf" style="edgeLabel;html=1;align=center;verticalAlign=middle;resizable=0;points=[];" vertex="1" connectable="0" parent="PJ2OHNvS5VbOxw7RyGj3-65">
          <mxGeometry x="-0.1427" y="-1" relative="1" as="geometry">
            <mxPoint y="4" as="offset" />
          </mxGeometry>
        </mxCell>
        <mxCell id="PJ2OHNvS5VbOxw7RyGj3-28" value="cnc:Var_type_2&#xa;(Victories)" style="graphMlID=n4;shape=rect;rounded=1;arcsize=30;fillColor=#ffff00;strokeColor=#000000;strokeWidth=1.0;fontStyle=1" vertex="1" parent="1">
          <mxGeometry x="477.96" y="2020" width="91.97" height="44" as="geometry" />
        </mxCell>
        <mxCell id="PJ2OHNvS5VbOxw7RyGj3-44" value="" style="edgeStyle=orthogonalEdgeStyle;rounded=0;orthogonalLoop=1;jettySize=auto;html=1;" edge="1" parent="1" source="PJ2OHNvS5VbOxw7RyGj3-38" target="PJ2OHNvS5VbOxw7RyGj3-12">
          <mxGeometry relative="1" as="geometry" />
        </mxCell>
        <mxCell id="PJ2OHNvS5VbOxw7RyGj3-38" value="" style="strokeWidth=1;html=1;shape=mxgraph.flowchart.annotation_2;align=left;labelPosition=right;pointerEvents=1;direction=north;" vertex="1" parent="1">
          <mxGeometry x="361.96999999999997" y="2064" width="160" height="50" as="geometry" />
        </mxCell>
        <mxCell id="PJ2OHNvS5VbOxw7RyGj3-42" value="&lt;b&gt;rdfs&lt;/b&gt;:subclassOf" style="text;html=1;align=center;verticalAlign=middle;whiteSpace=wrap;rounded=0;" vertex="1" parent="1">
          <mxGeometry x="411.96999999999997" y="2064" width="60" height="30" as="geometry" />
        </mxCell>
        <mxCell id="PJ2OHNvS5VbOxw7RyGj3-43" style="edgeStyle=orthogonalEdgeStyle;rounded=0;orthogonalLoop=1;jettySize=auto;html=1;exitX=0;exitY=0.5;exitDx=0;exitDy=0;exitPerimeter=0;" edge="1" parent="1" source="PJ2OHNvS5VbOxw7RyGj3-38" target="PJ2OHNvS5VbOxw7RyGj3-38">
          <mxGeometry relative="1" as="geometry" />
        </mxCell>
        <mxCell id="PJ2OHNvS5VbOxw7RyGj3-48" value="" style="edgeStyle=orthogonalEdgeStyle;rounded=0;orthogonalLoop=1;jettySize=auto;html=1;" edge="1" parent="1" source="PJ2OHNvS5VbOxw7RyGj3-47" target="PJ2OHNvS5VbOxw7RyGj3-27">
          <mxGeometry relative="1" as="geometry" />
        </mxCell>
        <mxCell id="PJ2OHNvS5VbOxw7RyGj3-47" value="" style="strokeWidth=1;html=1;shape=mxgraph.flowchart.annotation_2;align=left;labelPosition=right;pointerEvents=1;direction=south;" vertex="1" parent="1">
          <mxGeometry x="360.99" y="1970" width="160" height="50" as="geometry" />
        </mxCell>
        <mxCell id="PJ2OHNvS5VbOxw7RyGj3-49" value="&lt;b&gt;exob:&lt;/b&gt;producesObservation" style="text;html=1;align=center;verticalAlign=middle;whiteSpace=wrap;rounded=0;" vertex="1" parent="1">
          <mxGeometry x="401.97" y="1970" width="60" height="30" as="geometry" />
        </mxCell>
        <mxCell id="PJ2OHNvS5VbOxw7RyGj3-51" value="" style="endArrow=none;dashed=1;html=1;rounded=0;entryX=0.64;entryY=1.032;entryDx=0;entryDy=0;entryPerimeter=0;" edge="1" parent="1" target="PJ2OHNvS5VbOxw7RyGj3-9">
          <mxGeometry width="50" height="50" relative="1" as="geometry">
            <mxPoint x="140" y="1700" as="sourcePoint" />
            <mxPoint x="140" y="1710" as="targetPoint" />
          </mxGeometry>
        </mxCell>
        <mxCell id="PJ2OHNvS5VbOxw7RyGj3-69" style="edgeStyle=orthogonalEdgeStyle;rounded=0;orthogonalLoop=1;jettySize=auto;html=1;exitX=0.661;exitY=1.055;exitDx=0;exitDy=0;entryX=0.5;entryY=1;entryDx=0;entryDy=0;exitPerimeter=0;" edge="1" parent="1" source="PJ2OHNvS5VbOxw7RyGj3-4" target="PJ2OHNvS5VbOxw7RyGj3-53">
          <mxGeometry relative="1" as="geometry">
            <mxPoint x="730" y="2171.599853515625" as="sourcePoint" />
            <Array as="points">
              <mxPoint x="723" y="2340" />
              <mxPoint x="437" y="2340" />
            </Array>
          </mxGeometry>
        </mxCell>
        <mxCell id="PJ2OHNvS5VbOxw7RyGj3-70" value="Text" style="edgeLabel;html=1;align=center;verticalAlign=middle;resizable=0;points=[];" vertex="1" connectable="0" parent="PJ2OHNvS5VbOxw7RyGj3-69">
          <mxGeometry x="-0.538" y="-1" relative="1" as="geometry">
            <mxPoint as="offset" />
          </mxGeometry>
        </mxCell>
        <mxCell id="PJ2OHNvS5VbOxw7RyGj3-71" value="&lt;b style=&quot;border-color: var(--border-color);&quot;&gt;aff&lt;/b&gt;:influencedBy" style="edgeLabel;html=1;align=center;verticalAlign=middle;resizable=0;points=[];" vertex="1" connectable="0" parent="PJ2OHNvS5VbOxw7RyGj3-69">
          <mxGeometry x="-0.5414" relative="1" as="geometry">
            <mxPoint as="offset" />
          </mxGeometry>
        </mxCell>
        <mxCell id="PJ2OHNvS5VbOxw7RyGj3-53" value="fs:Pattern" style="graphMlID=n4;shape=rect;rounded=1;arcsize=30;fillColor=#ffff00;strokeColor=#000000;strokeWidth=1.0;fontStyle=1" vertex="1" parent="1">
          <mxGeometry x="395.99" y="2270" width="81.96822102864604" height="44" as="geometry" />
        </mxCell>
        <mxCell id="PJ2OHNvS5VbOxw7RyGj3-56" value="&lt;b style=&quot;border-color: var(--border-color); color: rgb(0, 0, 0); font-family: Helvetica; font-size: 11px; font-style: normal; font-variant-ligatures: normal; font-variant-caps: normal; letter-spacing: normal; orphans: 2; text-align: center; text-indent: 0px; text-transform: none; widows: 2; word-spacing: 0px; -webkit-text-stroke-width: 0px; text-decoration-thickness: initial; text-decoration-style: initial; text-decoration-color: initial;&quot;&gt;pof:&lt;/b&gt;&lt;span style=&quot;color: rgb(0, 0, 0); font-family: Helvetica; font-size: 11px; font-style: normal; font-variant-ligatures: normal; font-variant-caps: normal; font-weight: 400; letter-spacing: normal; orphans: 2; text-align: center; text-indent: 0px; text-transform: none; widows: 2; word-spacing: 0px; -webkit-text-stroke-width: 0px; background-color: rgb(255, 255, 255); text-decoration-thickness: initial; text-decoration-style: initial; text-decoration-color: initial; float: none; display: inline !important;&quot;&gt;isPartOf&lt;/span&gt;" style="text;whiteSpace=wrap;html=1;" vertex="1" parent="1">
          <mxGeometry x="305.99" y="2190" width="90" height="40" as="geometry" />
        </mxCell>
        <mxCell id="PJ2OHNvS5VbOxw7RyGj3-58" value="" style="endArrow=none;dashed=1;html=1;rounded=0;entryDx=0;entryDy=0;entryPerimeter=0;" edge="1" parent="1">
          <mxGeometry width="50" height="50" relative="1" as="geometry">
            <mxPoint x="140" y="2150" as="sourcePoint" />
            <mxPoint x="140" y="1700" as="targetPoint" />
          </mxGeometry>
        </mxCell>
        <mxCell id="PJ2OHNvS5VbOxw7RyGj3-63" value="" style="endArrow=none;dashed=1;html=1;rounded=0;exitX=0;exitY=0.25;exitDx=0;exitDy=0;" edge="1" parent="1" source="PJ2OHNvS5VbOxw7RyGj3-12">
          <mxGeometry width="50" height="50" relative="1" as="geometry">
            <mxPoint x="396" y="2145" as="sourcePoint" />
            <mxPoint x="395.49" y="2144" as="targetPoint" />
          </mxGeometry>
        </mxCell>
        <mxCell id="PJ2OHNvS5VbOxw7RyGj3-76" value="" style="html=1;verticalAlign=bottom;endArrow=open;dashed=1;endSize=8;curved=0;rounded=0;entryX=0.044;entryY=0.364;entryDx=0;entryDy=0;entryPerimeter=0;" edge="1" parent="1" target="PJ2OHNvS5VbOxw7RyGj3-12">
          <mxGeometry relative="1" as="geometry">
            <mxPoint x="140" y="2150" as="sourcePoint" />
            <mxPoint x="390" y="2150" as="targetPoint" />
          </mxGeometry>
        </mxCell>
        <mxCell id="PJ2OHNvS5VbOxw7RyGj3-77" value="&lt;b style=&quot;border-color: var(--border-color);&quot;&gt;rel:&lt;/b&gt;involves" style="edgeLabel;html=1;align=center;verticalAlign=middle;resizable=0;points=[];" vertex="1" connectable="0" parent="PJ2OHNvS5VbOxw7RyGj3-76">
          <mxGeometry x="-0.288" y="2" relative="1" as="geometry">
            <mxPoint x="21" as="offset" />
          </mxGeometry>
        </mxCell>
        <mxCell id="PJ2OHNvS5VbOxw7RyGj3-78" value="Prefixes" style="graphMlID=n0;shape=swimlane;startSize=20;fillColor=#b7b69e;strokeColor=#000000;strokeWidth=1.0;align=right;spacingRight=10;fontStyle=1" vertex="1" parent="1">
          <mxGeometry x="827" y="1655" width="620" height="171" as="geometry">
            <mxRectangle x="-550" y="110" width="100" height="30" as="alternateBounds" />
          </mxGeometry>
        </mxCell>
        <UserObject label="&lt;b style=&quot;border-color: var(--border-color);&quot;&gt;actspec:&lt;/b&gt;&lt;span style=&quot;border-color: var(--border-color);&quot;&gt;http://ontology.eil.utoronto.ca/icity/ActivitySpecification&lt;br&gt;&lt;b&gt;aff&lt;/b&gt;&lt;/span&gt;:&amp;nbsp;https://w3id.org/affectedBy&lt;br&gt;&lt;b style=&quot;border-color: var(--border-color);&quot;&gt;cco:&amp;nbsp;&lt;/b&gt;http://purl.org/ontology/cco/core#&lt;br&gt;&lt;b&gt;cnc&lt;/b&gt;:http://etna.istc.cnr.it/framester2/conceptnet/5.7.0&lt;br&gt;&lt;b&gt;exob:&lt;/b&gt;https://raw.githubusercontent.com/modellingDH/odp_experience/master/owl/cp_experience.owl.rdfxml&lt;br&gt;&lt;b style=&quot;border-color: var(--border-color);&quot;&gt;foaf:&amp;nbsp;&lt;/b&gt;&lt;span style=&quot;border-color: var(--border-color); background-color: initial;&quot;&gt;http://xmlns.com/foaf/0.1/&lt;br&gt;&lt;b style=&quot;border-color: var(--border-color);&quot;&gt;fs&lt;/b&gt;:https://w3id.org/framester/data/framestercore/&lt;br&gt;&lt;/span&gt;&lt;b style=&quot;border-color: var(--border-color);&quot;&gt;pof&lt;/b&gt;:&amp;nbsp;&lt;span style=&quot;border-color: var(--border-color); background-color: initial;&quot;&gt;http://www.ontologydesignpatterns.org/cp/owl/partof.owl#&lt;/span&gt;&lt;br&gt;&lt;b&gt;rdfs&lt;/b&gt;:http://www.w3.org/2000/01/rdf-schema#&lt;br&gt;&lt;b&gt;rel:&lt;/b&gt;https://curate.nd.edu/downloads/9p29086355b" link="http://www.w3.org/2000/01/rdf-schema#" id="PJ2OHNvS5VbOxw7RyGj3-79">
          <mxCell style="text;whiteSpace=wrap;html=1;" vertex="1" parent="PJ2OHNvS5VbOxw7RyGj3-78">
            <mxGeometry x="5.98" y="21" width="640" height="170" as="geometry" />
          </mxCell>
        </UserObject>
        <mxCell id="PJ2OHNvS5VbOxw7RyGj3-80" value="ODPs and Ontologies Used" style="graphMlID=n0;shape=swimlane;startSize=20;fillColor=#b7b69e;strokeColor=#000000;strokeWidth=1.0;align=right;spacingRight=10;fontStyle=1" vertex="1" parent="1">
          <mxGeometry x="880" y="1880" width="340" height="135" as="geometry" />
        </mxCell>
        <mxCell id="PJ2OHNvS5VbOxw7RyGj3-81" value="&lt;ul&gt;&lt;li style=&quot;border-color: var(--border-color);&quot;&gt;ActivitySpecification&lt;/li&gt;&lt;li&gt;Affected By&lt;/li&gt;&lt;li style=&quot;border-color: var(--border-color);&quot;&gt;Cognitive Characteristic Ontology&lt;/li&gt;&lt;li style=&quot;border-color: var(--border-color);&quot;&gt;Experience and Observation&lt;/li&gt;&lt;li&gt;PartOf&lt;/li&gt;&lt;li&gt;Relative Relationship&lt;/li&gt;&lt;/ul&gt;" style="text;html=1;strokeColor=none;fillColor=none;align=left;verticalAlign=middle;whiteSpace=wrap;rounded=0;" vertex="1" parent="PJ2OHNvS5VbOxw7RyGj3-80">
          <mxGeometry x="-10" y="5" width="270" height="142" as="geometry" />
        </mxCell>
      </root>
    </mxGraphModel>
  </diagram>
  <diagram id="-3Zt9A3ZeCrZTxAkQaS9" name="Page-2">
    <mxGraphModel dx="1050" dy="569" grid="1" gridSize="10" guides="1" tooltips="1" connect="1" arrows="1" fold="1" page="1" pageScale="1" pageWidth="827" pageHeight="1169" math="0" shadow="0">
      <root>
        <mxCell id="0" />
        <mxCell id="1" parent="0" />
        <mxCell id="D8hbgi8-UUDIC6GnHbRW-1" style="edgeStyle=orthogonalEdgeStyle;rounded=0;orthogonalLoop=1;jettySize=auto;html=1;exitX=0;exitY=1;exitDx=0;exitDy=0;" edge="1" parent="1" source="D8hbgi8-UUDIC6GnHbRW-3" target="D8hbgi8-UUDIC6GnHbRW-13">
          <mxGeometry relative="1" as="geometry" />
        </mxCell>
        <mxCell id="D8hbgi8-UUDIC6GnHbRW-2" value="&lt;b&gt;rdfs&lt;/b&gt;:sublcalssOf" style="edgeLabel;html=1;align=center;verticalAlign=middle;resizable=0;points=[];" vertex="1" connectable="0" parent="D8hbgi8-UUDIC6GnHbRW-1">
          <mxGeometry x="-0.0514" relative="1" as="geometry">
            <mxPoint as="offset" />
          </mxGeometry>
        </mxCell>
        <mxCell id="D8hbgi8-UUDIC6GnHbRW-3" value="cnc:Variable(s)" style="graphMlID=n4;shape=rect;rounded=1;arcsize=30;fillColor=#ffff00;strokeColor=#000000;strokeWidth=1.0;fontStyle=1" vertex="1" parent="1">
          <mxGeometry x="610" y="270" width="91.97" height="44" as="geometry" />
        </mxCell>
        <mxCell id="D8hbgi8-UUDIC6GnHbRW-4" style="edgeStyle=orthogonalEdgeStyle;rounded=0;orthogonalLoop=1;jettySize=auto;html=1;entryX=0.5;entryY=1;entryDx=0;entryDy=0;" edge="1" parent="1" source="D8hbgi8-UUDIC6GnHbRW-8" target="D8hbgi8-UUDIC6GnHbRW-21">
          <mxGeometry relative="1" as="geometry" />
        </mxCell>
        <mxCell id="D8hbgi8-UUDIC6GnHbRW-5" value="&lt;b&gt;cco&lt;/b&gt;:has_belief" style="edgeLabel;html=1;align=center;verticalAlign=middle;resizable=0;points=[];" vertex="1" connectable="0" parent="D8hbgi8-UUDIC6GnHbRW-4">
          <mxGeometry x="-0.1176" y="1" relative="1" as="geometry">
            <mxPoint as="offset" />
          </mxGeometry>
        </mxCell>
        <mxCell id="D8hbgi8-UUDIC6GnHbRW-6" style="edgeStyle=orthogonalEdgeStyle;rounded=0;orthogonalLoop=1;jettySize=auto;html=1;exitX=1;exitY=0.5;exitDx=0;exitDy=0;entryX=0.5;entryY=1;entryDx=0;entryDy=0;" edge="1" parent="1" source="D8hbgi8-UUDIC6GnHbRW-8" target="D8hbgi8-UUDIC6GnHbRW-16">
          <mxGeometry relative="1" as="geometry" />
        </mxCell>
        <mxCell id="D8hbgi8-UUDIC6GnHbRW-7" value="&lt;b style=&quot;border-color: var(--border-color);&quot;&gt;ioc&lt;/b&gt;:has_perception" style="edgeLabel;html=1;align=center;verticalAlign=middle;resizable=0;points=[];" vertex="1" connectable="0" parent="D8hbgi8-UUDIC6GnHbRW-6">
          <mxGeometry x="0.1123" y="-1" relative="1" as="geometry">
            <mxPoint as="offset" />
          </mxGeometry>
        </mxCell>
        <mxCell id="D8hbgi8-UUDIC6GnHbRW-8" value="foaf: Person&#xa;(Baseball Player)" style="graphMlID=n4;shape=rect;rounded=1;arcsize=30;fillColor=#ffff00;strokeColor=#000000;strokeWidth=1.0;fontStyle=1" vertex="1" parent="1">
          <mxGeometry x="588.01" y="780" width="94.97" height="40" as="geometry" />
        </mxCell>
        <mxCell id="D8hbgi8-UUDIC6GnHbRW-9" style="edgeStyle=orthogonalEdgeStyle;rounded=0;orthogonalLoop=1;jettySize=auto;html=1;exitX=0.25;exitY=0;exitDx=0;exitDy=0;entryX=0.75;entryY=1;entryDx=0;entryDy=0;" edge="1" parent="1" source="D8hbgi8-UUDIC6GnHbRW-21" target="D8hbgi8-UUDIC6GnHbRW-13">
          <mxGeometry relative="1" as="geometry" />
        </mxCell>
        <mxCell id="D8hbgi8-UUDIC6GnHbRW-10" value="&lt;b style=&quot;border-color: var(--border-color);&quot;&gt;rel:&lt;/b&gt;involves" style="edgeLabel;html=1;align=center;verticalAlign=middle;resizable=0;points=[];" vertex="1" connectable="0" parent="D8hbgi8-UUDIC6GnHbRW-9">
          <mxGeometry x="-0.1167" y="4" relative="1" as="geometry">
            <mxPoint x="-13" as="offset" />
          </mxGeometry>
        </mxCell>
        <mxCell id="D8hbgi8-UUDIC6GnHbRW-11" style="edgeStyle=orthogonalEdgeStyle;rounded=0;orthogonalLoop=1;jettySize=auto;html=1;exitX=0;exitY=0.5;exitDx=0;exitDy=0;entryX=0;entryY=0.75;entryDx=0;entryDy=0;" edge="1" parent="1" source="D8hbgi8-UUDIC6GnHbRW-13" target="D8hbgi8-UUDIC6GnHbRW-24">
          <mxGeometry relative="1" as="geometry" />
        </mxCell>
        <mxCell id="D8hbgi8-UUDIC6GnHbRW-12" value="&lt;b style=&quot;border-color: var(--border-color); background-color: rgb(251, 251, 251);&quot;&gt;pof:&lt;/b&gt;isPartOf" style="edgeLabel;html=1;align=center;verticalAlign=middle;resizable=0;points=[];" vertex="1" connectable="0" parent="D8hbgi8-UUDIC6GnHbRW-11">
          <mxGeometry x="-0.2244" y="1" relative="1" as="geometry">
            <mxPoint as="offset" />
          </mxGeometry>
        </mxCell>
        <mxCell id="D8hbgi8-UUDIC6GnHbRW-13" value="cnc:Var_type_1" style="graphMlID=n4;shape=rect;rounded=1;arcsize=30;fillColor=#ffff00;strokeColor=#000000;strokeWidth=1.0;fontStyle=1" vertex="1" parent="1">
          <mxGeometry x="450" y="440" width="91.97" height="44" as="geometry" />
        </mxCell>
        <mxCell id="D8hbgi8-UUDIC6GnHbRW-14" style="edgeStyle=orthogonalEdgeStyle;rounded=0;orthogonalLoop=1;jettySize=auto;html=1;exitX=1;exitY=0.5;exitDx=0;exitDy=0;entryX=1;entryY=0.75;entryDx=0;entryDy=0;" edge="1" parent="1" source="D8hbgi8-UUDIC6GnHbRW-16" target="D8hbgi8-UUDIC6GnHbRW-24">
          <mxGeometry relative="1" as="geometry" />
        </mxCell>
        <mxCell id="D8hbgi8-UUDIC6GnHbRW-15" value="&lt;b style=&quot;border-color: var(--border-color); background-color: rgb(251, 251, 251);&quot;&gt;pof:&lt;/b&gt;isPartOf" style="edgeLabel;html=1;align=center;verticalAlign=middle;resizable=0;points=[];" vertex="1" connectable="0" parent="D8hbgi8-UUDIC6GnHbRW-14">
          <mxGeometry x="-0.1892" relative="1" as="geometry">
            <mxPoint as="offset" />
          </mxGeometry>
        </mxCell>
        <mxCell id="D8hbgi8-UUDIC6GnHbRW-16" value="cnc:Var_type_2" style="graphMlID=n4;shape=rect;rounded=1;arcsize=30;fillColor=#ffff00;strokeColor=#000000;strokeWidth=1.0;fontStyle=1" vertex="1" parent="1">
          <mxGeometry x="730" y="450" width="91.97" height="44" as="geometry" />
        </mxCell>
        <mxCell id="D8hbgi8-UUDIC6GnHbRW-17" style="edgeStyle=orthogonalEdgeStyle;rounded=0;orthogonalLoop=1;jettySize=auto;html=1;exitX=1;exitY=1;exitDx=0;exitDy=0;entryX=0.61;entryY=0.014;entryDx=0;entryDy=0;entryPerimeter=0;" edge="1" parent="1" source="D8hbgi8-UUDIC6GnHbRW-3" target="D8hbgi8-UUDIC6GnHbRW-16">
          <mxGeometry relative="1" as="geometry" />
        </mxCell>
        <mxCell id="D8hbgi8-UUDIC6GnHbRW-18" value="&lt;b&gt;rdfs&lt;/b&gt;:subclassOf" style="edgeLabel;html=1;align=center;verticalAlign=middle;resizable=0;points=[];" vertex="1" connectable="0" parent="D8hbgi8-UUDIC6GnHbRW-17">
          <mxGeometry x="-0.0579" y="1" relative="1" as="geometry">
            <mxPoint as="offset" />
          </mxGeometry>
        </mxCell>
        <mxCell id="D8hbgi8-UUDIC6GnHbRW-19" style="edgeStyle=orthogonalEdgeStyle;rounded=0;orthogonalLoop=1;jettySize=auto;html=1;exitX=0.75;exitY=0;exitDx=0;exitDy=0;entryX=0.25;entryY=1;entryDx=0;entryDy=0;" edge="1" parent="1" source="D8hbgi8-UUDIC6GnHbRW-21" target="D8hbgi8-UUDIC6GnHbRW-16">
          <mxGeometry relative="1" as="geometry" />
        </mxCell>
        <mxCell id="D8hbgi8-UUDIC6GnHbRW-20" value="&lt;b style=&quot;border-color: var(--border-color);&quot;&gt;rel:&lt;/b&gt;involves" style="edgeLabel;html=1;align=center;verticalAlign=middle;resizable=0;points=[];" vertex="1" connectable="0" parent="D8hbgi8-UUDIC6GnHbRW-19">
          <mxGeometry x="-0.0901" y="3" relative="1" as="geometry">
            <mxPoint as="offset" />
          </mxGeometry>
        </mxCell>
        <mxCell id="D8hbgi8-UUDIC6GnHbRW-21" value="fs:CognitiveCorrelation" style="graphMlID=n4;shape=rect;rounded=1;arcsize=30;fillColor=#ffff00;strokeColor=#000000;strokeWidth=1.0;fontStyle=1" vertex="1" parent="1">
          <mxGeometry x="570" y="600" width="130.99" height="50" as="geometry" />
        </mxCell>
        <mxCell id="D8hbgi8-UUDIC6GnHbRW-22" style="edgeStyle=orthogonalEdgeStyle;rounded=0;orthogonalLoop=1;jettySize=auto;html=1;exitX=0;exitY=0.5;exitDx=0;exitDy=0;entryX=0.366;entryY=0.909;entryDx=0;entryDy=0;entryPerimeter=0;" edge="1" parent="1" source="D8hbgi8-UUDIC6GnHbRW-8" target="D8hbgi8-UUDIC6GnHbRW-13">
          <mxGeometry relative="1" as="geometry" />
        </mxCell>
        <mxCell id="D8hbgi8-UUDIC6GnHbRW-23" value="&lt;b&gt;ioc&lt;/b&gt;:has_perception" style="edgeLabel;html=1;align=center;verticalAlign=middle;resizable=0;points=[];" vertex="1" connectable="0" parent="D8hbgi8-UUDIC6GnHbRW-22">
          <mxGeometry x="0.1377" y="-1" relative="1" as="geometry">
            <mxPoint as="offset" />
          </mxGeometry>
        </mxCell>
        <mxCell id="D8hbgi8-UUDIC6GnHbRW-24" value="fs:Pattern" style="graphMlID=n4;shape=rect;rounded=1;arcsize=30;fillColor=#ffff00;strokeColor=#000000;strokeWidth=1.0;fontStyle=1" vertex="1" parent="1">
          <mxGeometry x="601.01" y="910" width="81.96822102864604" height="44" as="geometry" />
        </mxCell>
        <mxCell id="D8hbgi8-UUDIC6GnHbRW-25" style="edgeStyle=orthogonalEdgeStyle;rounded=0;orthogonalLoop=1;jettySize=auto;html=1;exitX=0.5;exitY=1;exitDx=0;exitDy=0;entryX=0.417;entryY=0.005;entryDx=0;entryDy=0;entryPerimeter=0;" edge="1" parent="1" source="D8hbgi8-UUDIC6GnHbRW-8" target="D8hbgi8-UUDIC6GnHbRW-24">
          <mxGeometry relative="1" as="geometry" />
        </mxCell>
        <mxCell id="D8hbgi8-UUDIC6GnHbRW-26" value="&lt;b&gt;aff&lt;/b&gt;:influencedBy" style="edgeLabel;html=1;align=center;verticalAlign=middle;resizable=0;points=[];" vertex="1" connectable="0" parent="D8hbgi8-UUDIC6GnHbRW-25">
          <mxGeometry x="0.015" y="1" relative="1" as="geometry">
            <mxPoint as="offset" />
          </mxGeometry>
        </mxCell>
        <mxCell id="dmFsNqCsW0_3sCjQv4Hg-1" value="Prefixes" style="graphMlID=n0;shape=swimlane;startSize=20;fillColor=#b7b69e;strokeColor=#000000;strokeWidth=1.0;align=right;spacingRight=10;fontStyle=1" vertex="1" parent="1">
          <mxGeometry x="870" y="210" width="620" height="171" as="geometry">
            <mxRectangle x="-550" y="110" width="100" height="30" as="alternateBounds" />
          </mxGeometry>
        </mxCell>
        <UserObject label="&lt;span style=&quot;border-color: var(--border-color);&quot;&gt;&lt;br&gt;&lt;b&gt;aff&lt;/b&gt;&lt;/span&gt;:&amp;nbsp;https://w3id.org/affectedBy&lt;br&gt;&lt;b style=&quot;border-color: var(--border-color);&quot;&gt;cco:&amp;nbsp;&lt;/b&gt;http://purl.org/ontology/cco/core#&lt;br&gt;&lt;b&gt;cnc&lt;/b&gt;:http://etna.istc.cnr.it/framester2/conceptnet/5.7.0&lt;br&gt;&lt;b&gt;exob:&lt;/b&gt;https://raw.githubusercontent.com/modellingDH/odp_experience/master/owl/cp_experience.owl.rdfxml&lt;br&gt;&lt;b style=&quot;border-color: var(--border-color);&quot;&gt;foaf:&amp;nbsp;&lt;/b&gt;&lt;span style=&quot;border-color: var(--border-color); background-color: initial;&quot;&gt;http://xmlns.com/foaf/0.1/&lt;br&gt;&lt;b style=&quot;border-color: var(--border-color);&quot;&gt;fs&lt;/b&gt;:https://w3id.org/framester/data/framestercore/&lt;br&gt;&lt;/span&gt;&lt;b style=&quot;border-color: var(--border-color);&quot;&gt;pof&lt;/b&gt;:&amp;nbsp;&lt;span style=&quot;border-color: var(--border-color); background-color: initial;&quot;&gt;http://www.ontologydesignpatterns.org/cp/owl/partof.owl#&lt;/span&gt;&lt;br&gt;&lt;b&gt;rdfs&lt;/b&gt;:http://www.w3.org/2000/01/rdf-schema#&lt;br&gt;&lt;b&gt;rel:&lt;/b&gt;https://curate.nd.edu/downloads/9p29086355b" link="http://www.w3.org/2000/01/rdf-schema#" id="dmFsNqCsW0_3sCjQv4Hg-2">
          <mxCell style="text;whiteSpace=wrap;html=1;" vertex="1" parent="dmFsNqCsW0_3sCjQv4Hg-1">
            <mxGeometry x="10" y="10" width="640" height="170" as="geometry" />
          </mxCell>
        </UserObject>
        <mxCell id="tDCLLq0YOHy6wpMTNA1y-1" value="ODPs and Ontologies Used" style="graphMlID=n0;shape=swimlane;startSize=20;fillColor=#b7b69e;strokeColor=#000000;strokeWidth=1.0;align=right;spacingRight=10;fontStyle=1" vertex="1" parent="1">
          <mxGeometry x="910" y="440" width="320" height="120" as="geometry" />
        </mxCell>
        <mxCell id="tDCLLq0YOHy6wpMTNA1y-2" value="&lt;div&gt;&lt;br&gt;&lt;/div&gt;&lt;ul&gt;&lt;li&gt;Affected By&lt;/li&gt;&lt;li style=&quot;border-color: var(--border-color);&quot;&gt;Cognitive Characteristic Ontology&lt;/li&gt;&lt;li style=&quot;border-color: var(--border-color);&quot;&gt;Experience and Observation&lt;/li&gt;&lt;li&gt;PartOf&lt;/li&gt;&lt;li&gt;Relative Relationship&lt;/li&gt;&lt;/ul&gt;" style="text;html=1;strokeColor=none;fillColor=none;align=left;verticalAlign=middle;whiteSpace=wrap;rounded=0;" vertex="1" parent="tDCLLq0YOHy6wpMTNA1y-1">
          <mxGeometry x="-10" y="-7" width="270" height="142" as="geometry" />
        </mxCell>
      </root>
    </mxGraphModel>
  </diagram>
</mxfile>
